<svg width="25" height="25" viewBox="0 0 25 25" fill="none" xmlns="http://www.w3.org/2000/svg">
<path fill-rule="evenodd" clip-rule="evenodd" d="M12.5 6.70703C9.04819 6.70703 6.24997 9.50525 6.24997 12.957C6.24997 16.4088 9.04819 19.207 12.5 19.207C15.9517 19.207 18.75 16.4088 18.75 12.957C18.75 9.50525 15.9517 6.70703 12.5 6.70703ZM4.74997 12.957C4.74997 8.67682 8.21976 5.20703 12.5 5.20703C16.7802 5.20703 20.25 8.67682 20.25 12.957C20.25 17.2372 16.7802 20.707 12.5 20.707C8.21976 20.707 4.74997 17.2372 4.74997 12.957Z" fill="white"/>
<path fill-rule="evenodd" clip-rule="evenodd" d="M4.74997 12.957C4.74997 12.5428 5.08576 12.207 5.49997 12.207H19.5C19.9142 12.207 20.25 12.5428 20.25 12.957C20.25 13.3712 19.9142 13.707 19.5 13.707H5.49997C5.08576 13.707 4.74997 13.3712 4.74997 12.957Z" fill="white"/>
<path fill-rule="evenodd" clip-rule="evenodd" d="M10.4501 12.957C10.4976 15.0766 11.2198 17.1179 12.5 18.7896C13.7802 17.1179 14.5023 15.0766 14.5498 12.957C14.5023 10.8375 13.7802 8.79614 12.5 7.12448C11.2198 8.79614 10.4976 10.8375 10.4501 12.957ZM12.5 5.95703L11.9462 5.45121C10.0727 7.50229 9.00799 10.1641 8.95013 12.9414C8.94991 12.9518 8.94991 12.9622 8.95013 12.9727C9.00799 15.75 10.0727 18.4118 11.9462 20.4628C12.0883 20.6184 12.2893 20.707 12.5 20.707C12.7107 20.707 12.9116 20.6184 13.0537 20.4628C14.9272 18.4118 15.9919 15.75 16.0498 12.9727C16.05 12.9622 16.05 12.9518 16.0498 12.9414C15.9919 10.1641 14.9272 7.50229 13.0537 5.45121L12.5 5.95703Z" fill="white"/>
</svg>
